<svg id="layer" xmlns="http://www.w3.org/2000/svg" viewBox="0 0 652 652"><defs><style>.cls-1{fill:#fff;}.cls-2{fill:blue;}</style></defs><rect class="cls-1" width="652" height="652" rx="42.5"/><path d="M318,292.2c-12.2,0-24.2,5.2-33.4,15.5V257H266.5v85.4h0a50.2,50.2,0,1,0,100.4,0C366.9,314.7,345.7,292.2,318,292.2Zm-1.3,81.1a30.9,30.9,0,1,1,30.9-30.9A30.86,30.86,0,0,1,316.7,373.3Zm113.7-81.1c-12.2,0-24.2,5.2-33.4,15.5V257H378.9v85.4h0a50.2,50.2,0,1,0,100.4,0C479.3,314.7,458.1,292.2,430.4,292.2Zm-1.3,81.1A30.9,30.9,0,1,1,460,342.4,30.86,30.86,0,0,1,429.1,373.3ZM164.3,351.2V294.9h19.5V351c0,14.3,8.3,23.5,22.3,23.5,14.2,0,22.3-8.8,22.3-23.5V294.9H248v56.3c0,26-15.8,41.4-41.9,41.4C180.6,392.6,164.3,376.7,164.3,351.2Zm350.2,39.1H495V257h19.5Zm110.2-40.2H550.2c2.8,14.9,13.3,25,31.7,25,10.8,0,23.9-4.1,32.4-10.3l8.1,14.3c-9.7,7.3-25.1,13.3-41.2,13.3-35.7,0-51.1-25-51.1-50.1,0-14.3,4.4-26.2,13.5-35.6s20.9-14.2,35.2-14.2c13.6,0,25,4.2,33.6,12.9s13.1,20.3,13.1,35.2C625.3,343.4,625.2,346.6,624.7,350.1Zm-74.6-15.9h55.6c-1.6-15.1-12.7-24.8-27.1-24.8C563.9,309.4,553,319.3,550.1,334.2Zm-447.6-42c-12.2,0-24.2,5.2-33.4,15.5V257H51v85.4h0a50.2,50.2,0,0,0,100.4,0C151.4,314.7,130.2,292.2,102.5,292.2Zm-1.3,81.1a30.9,30.9,0,1,1,30.9-30.9A30.86,30.86,0,0,1,101.2,373.3Z"/><circle class="cls-2" cx="37.8" cy="380.2" r="12.4"/></svg>